<svg width="1440" height="200" viewBox="0 0 1440 200" fill="none" xmlns="http://www.w3.org/2000/svg">
<rect width="1440" height="200" fill="#F67E7E"/>
<mask id="mask0_0_4517" style="mask-type:luminance" maskUnits="userSpaceOnUse" x="0" y="0" width="1440" height="200">
<rect width="1440" height="200" fill="white"/>
</mask>
<g mask="url(#mask0_0_4517)">
<rect x="100" y="200" width="100" height="100" transform="rotate(180 100 200)" fill="#2C6269"/>
<path fill-rule="evenodd" clip-rule="evenodd" d="M100 300C155.228 300 200 255.228 200 200C200 144.772 155.228 100 100 100C44.7715 100 0 144.772 0 200C0 255.228 44.7715 300 100 300ZM100 233C118.225 233 133 218.225 133 200C133 181.775 118.225 167 100 167C81.7746 167 67 181.775 67 200C67 218.225 81.7746 233 100 233Z" fill="#004047"/>
<path fill-rule="evenodd" clip-rule="evenodd" d="M100 156H0V160H100V156ZM100 164H0V168H100V164ZM0 172H100V176H0V172ZM100 180H0V184H100V180ZM0 188H100V192H0V188ZM100 196H0V200H100V196Z" fill="#F67E7E"/>
<path fill-rule="evenodd" clip-rule="evenodd" d="M0 56H4V60H0V56ZM11 56H7V60H11V56ZM11 64H7V68H11V64ZM7 72H11V76H7V72ZM11 80H7V84H11V80ZM7 88H11V92H7V88ZM11 96H7V100H11V96ZM14 56H18V60H14V56ZM14 64H18V68H14V64ZM18 72H14V76H18V72ZM14 80H18V84H14V80ZM18 88H14V92H18V88ZM14 96H18V100H14V96ZM0 64H4V68H0V64ZM21 56H25V60H21V56ZM21 64H25V68H21V64ZM25 72H21V76H25V72ZM21 80H25V84H21V80ZM25 88H21V92H25V88ZM21 96H25V100H21V96ZM0 72H4V76H0V72ZM28 56H32V60H28V56ZM28 64H32V68H28V64ZM32 72H28V76H32V72ZM28 80H32V84H28V80ZM32 88H28V92H32V88ZM28 96H32V100H28V96ZM0 80H4V84H0V80ZM35 56H39V60H35V56ZM35 64H39V68H35V64ZM39 72H35V76H39V72ZM35 80H39V84H35V80ZM39 88H35V92H39V88ZM35 96H39V100H35V96ZM0 88H4V92H0V88ZM42 56H46V60H42V56ZM42 64H46V68H42V64ZM46 72H42V76H46V72ZM42 80H46V84H42V80ZM46 88H42V92H46V88ZM42 96H46V100H42V96ZM0 96H4V100H0V96ZM49 56H53V60H49V56ZM49 64H53V68H49V64ZM53 72H49V76H53V72ZM49 80H53V84H49V80ZM53 88H49V92H53V88ZM49 96H53V100H49V96Z" fill="#79C8C7"/>
</g>
<g clip-path="url(#clip0_0_4517)">
<g clip-path="url(#clip1_0_4517)">
<rect x="1028" y="77" width="151" height="46" rx="23" stroke="#012F34" stroke-width="2"/>
<path d="M1064.22 106.162C1062.84 106.162 1061.75 105.766 1060.94 104.974C1060.14 104.17 1059.74 103.054 1059.74 101.626C1059.74 100.666 1059.94 99.82 1060.33 99.088C1060.73 98.356 1061.28 97.786 1061.99 97.378C1062.7 96.97 1063.51 96.766 1064.44 96.766C1065.2 96.766 1065.88 96.916 1066.45 97.216C1067.03 97.516 1067.5 97.984 1067.86 98.62L1066.29 99.808C1066.06 99.424 1065.8 99.148 1065.5 98.98C1065.21 98.812 1064.86 98.728 1064.44 98.728C1063.73 98.728 1063.15 98.992 1062.69 99.52C1062.25 100.048 1062.02 100.744 1062.02 101.608C1062.02 102.448 1062.22 103.096 1062.62 103.552C1063.03 103.996 1063.61 104.218 1064.36 104.218C1064.76 104.218 1065.13 104.128 1065.46 103.948C1065.81 103.768 1066.1 103.486 1066.33 103.102L1067.86 104.326C1067.45 104.986 1066.93 105.46 1066.31 105.748C1065.68 106.024 1064.99 106.162 1064.22 106.162ZM1072.96 96.766C1074.32 96.766 1075.38 97.174 1076.15 97.99C1076.93 98.794 1077.32 99.886 1077.32 101.266C1077.32 102.202 1077.12 103.042 1076.72 103.786C1076.34 104.518 1075.79 105.1 1075.09 105.532C1074.38 105.952 1073.56 106.162 1072.62 106.162C1071.26 106.162 1070.2 105.76 1069.42 104.956C1068.65 104.152 1068.26 103.054 1068.26 101.662C1068.26 100.726 1068.46 99.892 1068.84 99.16C1069.24 98.416 1069.78 97.834 1070.48 97.414C1071.19 96.982 1072.01 96.766 1072.96 96.766ZM1072.69 104.236C1073.4 104.236 1073.97 103.966 1074.4 103.426C1074.83 102.886 1075.05 102.166 1075.05 101.266C1075.05 100.45 1074.86 99.82 1074.47 99.376C1074.1 98.932 1073.59 98.71 1072.93 98.71C1072.19 98.71 1071.61 98.98 1071.18 99.52C1070.75 100.06 1070.53 100.774 1070.53 101.662C1070.53 102.478 1070.72 103.114 1071.09 103.57C1071.47 104.014 1072.01 104.236 1072.69 104.236ZM1079.22 106V96.91H1081.42L1081.31 99.196C1081.66 98.416 1082.13 97.816 1082.73 97.396C1083.33 96.976 1084.02 96.766 1084.79 96.766C1085.81 96.766 1086.57 97.12 1087.09 97.828C1087.62 98.524 1087.88 99.526 1087.86 100.834L1087.83 106H1085.63L1085.67 101.014C1085.68 100.306 1085.57 99.766 1085.33 99.394C1085.1 99.01 1084.73 98.818 1084.21 98.818C1083.81 98.818 1083.45 98.932 1083.11 99.16C1082.78 99.388 1082.48 99.778 1082.23 100.33C1081.98 100.87 1081.78 101.608 1081.64 102.544C1081.49 103.468 1081.41 104.62 1081.4 106H1079.22ZM1093.92 106.162C1092.83 106.162 1091.98 105.862 1091.37 105.262C1090.77 104.662 1090.47 103.876 1090.48 102.904L1090.56 98.746H1089.01V96.91H1090.59L1090.61 95.038H1092.81L1092.77 96.91H1095.74V98.746H1092.75L1092.7 102.67C1092.69 103.162 1092.81 103.552 1093.06 103.84C1093.32 104.116 1093.71 104.254 1094.23 104.254C1094.5 104.254 1094.76 104.218 1095 104.146C1095.24 104.074 1095.49 103.942 1095.76 103.75L1096.41 105.442C1096.13 105.682 1095.78 105.862 1095.34 105.982C1094.91 106.102 1094.44 106.162 1093.92 106.162ZM1105.69 96.946V106H1103.45L1103.53 104.416C1103.2 104.968 1102.78 105.4 1102.25 105.712C1101.73 106.012 1101.14 106.162 1100.47 106.162C1099.67 106.162 1099 105.982 1098.45 105.622C1097.9 105.25 1097.48 104.74 1097.19 104.092C1096.9 103.444 1096.76 102.7 1096.76 101.86C1096.76 100.852 1096.96 99.97 1097.35 99.214C1097.75 98.446 1098.29 97.846 1098.97 97.414C1099.67 96.982 1100.45 96.766 1101.31 96.766C1101.89 96.766 1102.4 96.892 1102.84 97.144C1103.29 97.384 1103.63 97.708 1103.87 98.116L1104.08 96.946H1105.69ZM1101.47 98.71C1100.73 98.71 1100.14 98.992 1099.69 99.556C1099.25 100.12 1099.03 100.858 1099.03 101.77C1099.03 102.55 1099.19 103.156 1099.53 103.588C1099.87 104.02 1100.33 104.236 1100.92 104.236C1101.4 104.236 1101.83 104.098 1102.21 103.822C1102.61 103.546 1102.92 103.162 1103.15 102.67C1103.38 102.178 1103.49 101.614 1103.49 100.978C1103.49 100.27 1103.31 99.718 1102.95 99.322C1102.59 98.914 1102.1 98.71 1101.47 98.71ZM1112.07 106.162C1110.69 106.162 1109.6 105.766 1108.79 104.974C1107.99 104.17 1107.59 103.054 1107.59 101.626C1107.59 100.666 1107.78 99.82 1108.18 99.088C1108.58 98.356 1109.13 97.786 1109.84 97.378C1110.54 96.97 1111.36 96.766 1112.28 96.766C1113.05 96.766 1113.72 96.916 1114.3 97.216C1114.88 97.516 1115.34 97.984 1115.7 98.62L1114.14 99.808C1113.91 99.424 1113.65 99.148 1113.35 98.98C1113.06 98.812 1112.7 98.728 1112.28 98.728C1111.58 98.728 1110.99 98.992 1110.54 99.52C1110.09 100.048 1109.87 100.744 1109.87 101.608C1109.87 102.448 1110.07 103.096 1110.47 103.552C1110.87 103.996 1111.46 104.218 1112.21 104.218C1112.61 104.218 1112.97 104.128 1113.31 103.948C1113.66 103.768 1113.95 103.486 1114.17 103.102L1115.7 104.326C1115.3 104.986 1114.78 105.46 1114.16 105.748C1113.53 106.024 1112.84 106.162 1112.07 106.162ZM1120.83 106.162C1119.74 106.162 1118.89 105.862 1118.28 105.262C1117.68 104.662 1117.38 103.876 1117.4 102.904L1117.47 98.746H1115.92V96.91H1117.5L1117.52 95.038H1119.72L1119.68 96.91H1122.65V98.746H1119.66L1119.61 102.67C1119.6 103.162 1119.72 103.552 1119.97 103.84C1120.23 104.116 1120.62 104.254 1121.14 104.254C1121.42 104.254 1121.67 104.218 1121.91 104.146C1122.15 104.074 1122.41 103.942 1122.67 103.75L1123.32 105.442C1123.04 105.682 1122.69 105.862 1122.26 105.982C1121.82 106.102 1121.35 106.162 1120.83 106.162ZM1131.55 106.162C1130.54 106.162 1129.78 105.82 1129.27 105.136C1128.76 104.452 1128.52 103.504 1128.53 102.292L1128.56 96.91H1130.76L1130.72 102.094C1130.71 102.718 1130.82 103.21 1131.05 103.57C1131.28 103.93 1131.64 104.11 1132.13 104.11C1132.51 104.11 1132.87 103.996 1133.19 103.768C1133.53 103.54 1133.81 103.156 1134.05 102.616C1134.29 102.064 1134.48 101.326 1134.61 100.402C1134.76 99.466 1134.83 98.302 1134.83 96.91H1136.95V106H1134.74L1134.86 103.93C1134.5 104.662 1134.04 105.22 1133.46 105.604C1132.9 105.976 1132.26 106.162 1131.55 106.162ZM1142.48 106.162C1141.23 106.162 1140.27 105.928 1139.61 105.46C1138.95 104.98 1138.57 104.314 1138.46 103.462L1140.32 103.012C1140.39 103.468 1140.6 103.822 1140.95 104.074C1141.29 104.314 1141.79 104.434 1142.44 104.434C1142.97 104.434 1143.36 104.35 1143.63 104.182C1143.9 104.014 1144.04 103.786 1144.04 103.498C1144.04 103.21 1143.89 102.988 1143.59 102.832C1143.3 102.676 1142.85 102.538 1142.24 102.418C1141.56 102.286 1140.97 102.118 1140.48 101.914C1140 101.71 1139.63 101.434 1139.36 101.086C1139.11 100.726 1138.98 100.258 1138.98 99.682C1138.98 99.13 1139.14 98.638 1139.45 98.206C1139.76 97.762 1140.19 97.414 1140.73 97.162C1141.28 96.898 1141.91 96.766 1142.62 96.766C1143.57 96.766 1144.34 96.988 1144.94 97.432C1145.55 97.876 1145.92 98.446 1146.04 99.142L1144.22 99.628C1144.14 99.28 1143.96 99.01 1143.68 98.818C1143.41 98.614 1143.03 98.512 1142.57 98.512C1142.1 98.512 1141.74 98.608 1141.49 98.8C1141.25 98.992 1141.13 99.232 1141.13 99.52C1141.13 99.808 1141.26 100.036 1141.54 100.204C1141.83 100.36 1142.31 100.51 1143 100.654C1143.63 100.786 1144.19 100.954 1144.65 101.158C1145.13 101.35 1145.51 101.62 1145.79 101.968C1146.06 102.304 1146.2 102.76 1146.2 103.336C1146.2 103.9 1146.04 104.398 1145.72 104.83C1145.4 105.25 1144.97 105.58 1144.4 105.82C1143.84 106.048 1143.2 106.162 1142.48 106.162Z" fill="#012F34"/>
</g>
<path d="M294.632 105.656L296.456 111.704C295.752 112.248 294.84 112.68 293.72 113C292.632 113.32 291.512 113.48 290.36 113.48C288.28 113.48 286.456 113.064 284.888 112.232C283.32 111.368 282.024 110.12 281 108.488L276.92 101.96C276.44 101.192 275.96 100.664 275.48 100.376C275.032 100.056 274.504 99.88 273.896 99.848V113H266.216V78.92H277.4C282.104 78.92 285.624 79.864 287.96 81.752C290.328 83.64 291.512 86.248 291.512 89.576C291.512 92.2 290.696 94.344 289.064 96.008C287.464 97.672 285.4 98.76 282.872 99.272C283.928 99.784 284.856 100.632 285.656 101.816L287.288 104.312C288.312 105.848 289.656 106.616 291.32 106.616C291.928 106.616 292.504 106.552 293.048 106.424C293.592 106.264 294.12 106.008 294.632 105.656ZM276.968 85.304H273.896V93.752H276.92C279.32 93.752 281.048 93.416 282.104 92.744C283.16 92.04 283.688 90.952 283.688 89.48C283.688 88.008 283.096 86.952 281.912 86.312C280.728 85.64 279.08 85.304 276.968 85.304ZM309.146 113.48C306.426 113.48 304.074 112.984 302.09 111.992C300.106 110.968 298.57 109.544 297.482 107.72C296.394 105.864 295.85 103.672 295.85 101.144C295.85 98.584 296.394 96.328 297.482 94.376C298.602 92.424 300.09 90.904 301.946 89.816C303.834 88.728 305.962 88.184 308.33 88.184C311.018 88.184 313.21 88.792 314.906 90.008C316.602 91.224 317.77 92.952 318.41 95.192C319.082 97.4 319.226 99.976 318.842 102.92H303.338C303.53 104.136 304.17 105.16 305.258 105.992C306.346 106.792 307.834 107.192 309.722 107.192C310.586 107.192 311.498 107.016 312.458 106.664C313.418 106.28 314.234 105.72 314.906 104.984L318.986 109.304C317.93 110.584 316.618 111.608 315.05 112.376C313.514 113.112 311.546 113.48 309.146 113.48ZM308.474 93.512C307.194 93.512 306.106 93.896 305.21 94.664C304.346 95.432 303.77 96.504 303.482 97.88H312.65C312.682 96.376 312.314 95.272 311.546 94.568C310.81 93.864 309.786 93.512 308.474 93.512ZM347.348 88.664V113H339.956L340.196 109.352C338.436 112.104 335.828 113.48 332.372 113.48C330.196 113.48 328.34 112.984 326.804 111.992C325.268 111 324.1 109.624 323.3 107.864C322.5 106.104 322.1 104.088 322.1 101.816C322.1 99.096 322.66 96.712 323.78 94.664C324.9 92.616 326.404 91.032 328.292 89.912C330.18 88.76 332.292 88.184 334.628 88.184C336.164 88.184 337.524 88.504 338.708 89.144C339.892 89.752 340.804 90.568 341.444 91.592L342.068 88.664H347.348ZM335.348 94.568C333.588 94.568 332.196 95.224 331.172 96.536C330.18 97.848 329.684 99.528 329.684 101.576C329.684 103.336 330.068 104.696 330.836 105.656C331.636 106.616 332.708 107.096 334.052 107.096C335.684 107.096 337.076 106.424 338.228 105.08C339.412 103.736 340.004 101.976 340.004 99.8C340.004 98.168 339.588 96.888 338.756 95.96C337.924 95.032 336.788 94.568 335.348 94.568ZM377.02 77.48V113H369.628L369.868 109.4C368.108 112.12 365.5 113.48 362.044 113.48C359.868 113.48 358.012 112.984 356.476 111.992C354.94 111 353.772 109.624 352.972 107.864C352.172 106.104 351.771 104.088 351.771 101.816C351.771 99.096 352.332 96.712 353.452 94.664C354.572 92.616 356.076 91.032 357.964 89.912C359.852 88.76 361.964 88.184 364.299 88.184C365.388 88.184 366.396 88.344 367.324 88.664C368.252 88.984 369.052 89.432 369.724 90.008L369.676 88.568V77.48H377.02ZM365.02 94.568C363.26 94.568 361.868 95.224 360.844 96.536C359.852 97.848 359.356 99.528 359.356 101.576C359.356 103.336 359.74 104.696 360.508 105.656C361.308 106.616 362.38 107.096 363.724 107.096C365.356 107.096 366.748 106.424 367.9 105.08C369.084 103.736 369.676 101.976 369.676 99.8C369.676 98.168 369.26 96.888 368.428 95.96C367.596 95.032 366.46 94.568 365.02 94.568ZM391.475 123.08C390.483 123.08 389.427 123 388.307 122.84C387.187 122.712 386.099 122.504 385.043 122.216C384.019 121.928 383.155 121.544 382.451 121.064L384.179 114.824C385.299 115.368 386.467 115.8 387.683 116.12C388.931 116.472 390.339 116.648 391.907 116.648C394.563 116.648 396.451 116.04 397.571 114.824C398.723 113.608 399.379 111.704 399.539 109.112L399.683 107.144C398.691 108.84 397.443 110.168 395.939 111.128C394.435 112.056 392.739 112.52 390.851 112.52C387.971 112.52 385.811 111.56 384.371 109.64C382.931 107.72 382.227 105.032 382.259 101.576L382.355 88.568H389.699L389.603 101.048C389.603 102.488 389.859 103.624 390.371 104.456C390.883 105.288 391.715 105.704 392.867 105.704C394.179 105.704 395.315 105.176 396.275 104.12C397.235 103.064 397.987 101.304 398.531 98.84C399.075 96.344 399.379 92.92 399.443 88.568H406.547V108.248C406.547 113.368 405.187 117.112 402.467 119.48C399.779 121.88 396.115 123.08 391.475 123.08ZM435.262 113.48C432.254 113.48 429.87 112.648 428.11 110.984C426.35 109.288 425.486 107.064 425.518 104.312L425.71 94.664H421.678V88.568H425.806L425.854 83.576H433.15L433.102 88.568H440.734V94.664H433.006L432.862 103.496C432.862 104.648 433.166 105.544 433.773 106.184C434.382 106.824 435.294 107.144 436.51 107.144C437.214 107.144 437.886 107.064 438.526 106.904C439.198 106.712 439.886 106.36 440.59 105.848L442.702 111.464C441.07 112.808 438.59 113.48 435.262 113.48ZM456.284 88.184C460.092 88.184 463.068 89.272 465.212 91.448C467.388 93.624 468.476 96.568 468.476 100.28C468.476 102.808 467.932 105.064 466.844 107.048C465.756 109.032 464.22 110.6 462.236 111.752C460.252 112.904 457.916 113.48 455.228 113.48C451.452 113.48 448.476 112.392 446.3 110.216C444.156 108.04 443.084 105.112 443.084 101.432C443.084 98.872 443.628 96.6 444.716 94.616C445.804 92.632 447.34 91.064 449.324 89.912C451.308 88.76 453.628 88.184 456.284 88.184ZM455.564 107.096C457.196 107.096 458.492 106.488 459.452 105.272C460.444 104.024 460.94 102.36 460.94 100.28C460.94 98.488 460.508 97.096 459.644 96.104C458.78 95.08 457.596 94.568 456.092 94.568C454.428 94.568 453.1 95.192 452.108 96.44C451.148 97.656 450.668 99.304 450.668 101.384C450.668 103.176 451.084 104.584 451.916 105.608C452.78 106.6 453.996 107.096 455.564 107.096ZM493.9 123.08C492.94 123.08 491.884 123 490.732 122.84C489.612 122.712 488.54 122.504 487.516 122.216C486.492 121.928 485.612 121.544 484.876 121.064L486.652 114.824C487.708 115.368 488.86 115.8 490.108 116.12C491.388 116.472 492.796 116.648 494.332 116.648C497.02 116.648 498.924 116.04 500.044 114.824C501.164 113.608 501.804 111.704 501.964 109.112L502.012 108.68C500.284 111.24 497.724 112.52 494.332 112.52C492.092 112.52 490.188 112.056 488.62 111.128C487.052 110.2 485.852 108.904 485.02 107.24C484.188 105.576 483.771 103.656 483.771 101.48C483.771 98.856 484.316 96.552 485.404 94.568C486.524 92.584 488.028 91.032 489.916 89.912C491.804 88.76 493.948 88.184 496.348 88.184C497.948 88.184 499.34 88.504 500.524 89.144C501.74 89.752 502.668 90.568 503.308 91.592L503.932 88.664H509.212V108.248C509.212 111.576 508.572 114.328 507.292 116.504C506.044 118.712 504.268 120.36 501.964 121.448C499.692 122.536 497.004 123.08 493.9 123.08ZM497.116 94.568C495.324 94.568 493.916 95.176 492.892 96.392C491.868 97.608 491.356 99.144 491.356 101C491.356 102.632 491.756 103.896 492.556 104.792C493.388 105.688 494.508 106.136 495.916 106.136C497.036 106.136 498.044 105.848 498.94 105.272C499.836 104.696 500.54 103.896 501.052 102.872C501.596 101.848 501.868 100.68 501.868 99.368C501.868 97.896 501.436 96.728 500.572 95.864C499.708 95 498.556 94.568 497.116 94.568ZM526.927 113.48C524.207 113.48 521.855 112.984 519.871 111.992C517.887 110.968 516.351 109.544 515.263 107.72C514.175 105.864 513.631 103.672 513.631 101.144C513.631 98.584 514.175 96.328 515.263 94.376C516.383 92.424 517.871 90.904 519.727 89.816C521.615 88.728 523.743 88.184 526.111 88.184C528.799 88.184 530.991 88.792 532.687 90.008C534.383 91.224 535.551 92.952 536.191 95.192C536.863 97.4 537.007 99.976 536.623 102.92H521.119C521.311 104.136 521.951 105.16 523.039 105.992C524.127 106.792 525.615 107.192 527.503 107.192C528.367 107.192 529.279 107.016 530.239 106.664C531.199 106.28 532.015 105.72 532.687 104.984L536.767 109.304C535.711 110.584 534.399 111.608 532.831 112.376C531.295 113.112 529.327 113.48 526.927 113.48ZM526.255 93.512C524.975 93.512 523.887 93.896 522.991 94.664C522.127 95.432 521.551 96.504 521.263 97.88H530.431C530.463 96.376 530.095 95.272 529.327 94.568C528.591 93.864 527.567 93.512 526.255 93.512ZM551.887 113.48C548.879 113.48 546.495 112.648 544.735 110.984C542.975 109.288 542.111 107.064 542.143 104.312L542.335 94.664H538.303V88.568H542.431L542.479 83.576H549.775L549.727 88.568H557.359V94.664H549.631L549.487 103.496C549.487 104.648 549.791 105.544 550.398 106.184C551.007 106.824 551.919 107.144 553.135 107.144C553.839 107.144 554.511 107.064 555.151 106.904C555.823 106.712 556.511 106.36 557.215 105.848L559.327 111.464C557.695 112.808 555.215 113.48 551.887 113.48ZM582.496 113.48C578.944 113.48 576.256 112.824 574.432 111.512C572.608 110.168 571.536 108.408 571.216 106.232L577.312 104.696C577.504 105.624 578.032 106.376 578.896 106.952C579.76 107.496 580.944 107.768 582.448 107.768C584.848 107.768 586.048 107.208 586.048 106.088C586.048 105.512 585.696 105.08 584.992 104.792C584.32 104.472 583.216 104.168 581.68 103.88C578.8 103.368 576.56 102.552 574.96 101.432C573.392 100.312 572.608 98.6 572.608 96.296C572.608 94.728 573.056 93.336 573.952 92.12C574.848 90.904 576.08 89.944 577.648 89.24C579.216 88.536 581.024 88.184 583.072 88.184C585.728 88.184 587.92 88.808 589.648 90.056C591.408 91.304 592.448 92.84 592.768 94.664L586.768 96.296C586.544 95.592 586.096 95.016 585.424 94.568C584.784 94.12 583.904 93.896 582.784 93.896C581.728 93.896 580.944 94.072 580.432 94.424C579.952 94.776 579.712 95.192 579.712 95.672C579.712 96.248 580.048 96.712 580.72 97.064C581.392 97.384 582.576 97.72 584.272 98.072C586 98.392 587.52 98.84 588.832 99.416C590.176 99.96 591.216 100.728 591.952 101.72C592.72 102.68 593.104 103.992 593.104 105.656C593.104 107.224 592.64 108.6 591.712 109.784C590.816 110.968 589.568 111.88 587.968 112.52C586.368 113.16 584.544 113.48 582.496 113.48ZM607.34 113.48C604.332 113.48 601.948 112.648 600.188 110.984C598.428 109.288 597.564 107.064 597.596 104.312L597.788 94.664H593.756V88.568H597.884L597.932 83.576H605.228L605.18 88.568H612.812V94.664H605.084L604.94 103.496C604.94 104.648 605.244 105.544 605.852 106.184C606.46 106.824 607.372 107.144 608.588 107.144C609.292 107.144 609.964 107.064 610.604 106.904C611.276 106.712 611.964 106.36 612.668 105.848L614.78 111.464C613.148 112.808 610.668 113.48 607.34 113.48ZM640.41 88.664V113H633.018L633.258 109.352C631.498 112.104 628.89 113.48 625.434 113.48C623.258 113.48 621.402 112.984 619.866 111.992C618.33 111 617.162 109.624 616.362 107.864C615.562 106.104 615.162 104.088 615.162 101.816C615.162 99.096 615.722 96.712 616.842 94.664C617.962 92.616 619.466 91.032 621.354 89.912C623.242 88.76 625.354 88.184 627.69 88.184C629.226 88.184 630.586 88.504 631.77 89.144C632.954 89.752 633.866 90.568 634.506 91.592L635.13 88.664H640.41ZM628.41 94.568C626.65 94.568 625.258 95.224 624.234 96.536C623.242 97.848 622.746 99.528 622.746 101.576C622.746 103.336 623.13 104.696 623.898 105.656C624.698 106.616 625.77 107.096 627.114 107.096C628.746 107.096 630.138 106.424 631.29 105.08C632.474 103.736 633.066 101.976 633.066 99.8C633.066 98.168 632.65 96.888 631.818 95.96C630.986 95.032 629.85 94.568 628.41 94.568ZM662.834 95.672C662.194 95.416 661.33 95.288 660.242 95.288C658.578 95.288 657.25 95.88 656.258 97.064C655.266 98.216 654.546 100.104 654.098 102.728C653.65 105.32 653.426 108.744 653.426 113H646.13V97.16L646.034 88.568H653.378L653.042 94.664C653.906 92.328 655.058 90.664 656.498 89.672C657.97 88.68 659.538 88.184 661.202 88.184C661.746 88.184 662.242 88.216 662.69 88.28C663.17 88.344 663.65 88.456 664.13 88.616L662.834 95.672ZM679.808 113.48C676.8 113.48 674.416 112.648 672.656 110.984C670.896 109.288 670.032 107.064 670.064 104.312L670.256 94.664H666.224V88.568H670.352L670.4 83.576H677.696L677.648 88.568H685.28V94.664H677.552L677.408 103.496C677.408 104.648 677.712 105.544 678.32 106.184C678.928 106.824 679.84 107.144 681.056 107.144C681.76 107.144 682.432 107.064 683.072 106.904C683.744 106.712 684.432 106.36 685.136 105.848L687.248 111.464C685.616 112.808 683.136 113.48 679.808 113.48ZM700.927 113.48C698.207 113.48 695.855 112.984 693.871 111.992C691.887 110.968 690.351 109.544 689.263 107.72C688.175 105.864 687.631 103.672 687.631 101.144C687.631 98.584 688.175 96.328 689.263 94.376C690.383 92.424 691.871 90.904 693.727 89.816C695.615 88.728 697.743 88.184 700.111 88.184C702.799 88.184 704.991 88.792 706.687 90.008C708.383 91.224 709.551 92.952 710.191 95.192C710.863 97.4 711.007 99.976 710.623 102.92H695.119C695.311 104.136 695.951 105.16 697.039 105.992C698.127 106.792 699.615 107.192 701.503 107.192C702.367 107.192 703.279 107.016 704.239 106.664C705.199 106.28 706.015 105.72 706.687 104.984L710.767 109.304C709.711 110.584 708.399 111.608 706.831 112.376C705.295 113.112 703.327 113.48 700.927 113.48ZM700.255 93.512C698.975 93.512 697.887 93.896 696.991 94.664C696.127 95.432 695.551 96.504 695.263 97.88H704.431C704.463 96.376 704.095 95.272 703.327 94.568C702.591 93.864 701.567 93.512 700.255 93.512ZM739.129 77.48V113H731.737L731.977 109.4C730.217 112.12 727.609 113.48 724.153 113.48C721.977 113.48 720.121 112.984 718.585 111.992C717.049 111 715.881 109.624 715.081 107.864C714.281 106.104 713.881 104.088 713.881 101.816C713.881 99.096 714.441 96.712 715.561 94.664C716.681 92.616 718.185 91.032 720.073 89.912C721.961 88.76 724.073 88.184 726.409 88.184C727.497 88.184 728.505 88.344 729.433 88.664C730.361 88.984 731.161 89.432 731.833 90.008L731.785 88.568V77.48H739.129ZM727.129 94.568C725.369 94.568 723.977 95.224 722.953 96.536C721.961 97.848 721.465 99.528 721.465 101.576C721.465 103.336 721.849 104.696 722.617 105.656C723.417 106.616 724.489 107.096 725.833 107.096C727.465 107.096 728.857 106.424 730.009 105.08C731.193 103.736 731.785 101.976 731.785 99.8C731.785 98.168 731.369 96.888 730.537 95.96C729.705 95.032 728.569 94.568 727.129 94.568ZM755.841 101.624L750.321 101.336C750.065 98.936 750.241 96.936 750.849 95.336C751.457 93.736 752.513 92.376 754.017 91.256C755.073 90.424 755.809 89.736 756.225 89.192C756.641 88.648 756.849 88.056 756.849 87.416C756.849 86.744 756.561 86.2 755.985 85.784C755.409 85.336 754.497 85.112 753.249 85.112C751.809 85.112 750.561 85.528 749.505 86.36C748.449 87.192 747.665 88.376 747.153 89.912L741.633 86.936C742.177 85.24 743.057 83.752 744.273 82.472C745.489 81.192 746.929 80.2 748.593 79.496C750.289 78.792 752.097 78.44 754.017 78.44C756.097 78.44 757.905 78.808 759.441 79.544C761.009 80.28 762.225 81.288 763.089 82.568C763.985 83.848 764.433 85.32 764.433 86.984C764.433 88.712 764.049 90.216 763.281 91.496C762.545 92.776 761.393 94.024 759.825 95.24C758.353 96.392 757.329 97.432 756.753 98.36C756.209 99.256 755.905 100.344 755.841 101.624ZM753.153 113.48C751.777 113.48 750.657 113.064 749.793 112.232C748.929 111.4 748.497 110.328 748.497 109.016C748.497 107.736 748.929 106.68 749.793 105.848C750.657 105.016 751.777 104.6 753.153 104.6C754.529 104.6 755.649 105.016 756.513 105.848C757.377 106.68 757.809 107.736 757.809 109.016C757.809 110.328 757.377 111.4 756.513 112.232C755.649 113.064 754.529 113.48 753.153 113.48Z" fill="#012F34"/>
</g>
<defs>
<clipPath id="clip0_0_4517">
<rect width="917" height="48" fill="white" transform="translate(263 76)"/>
</clipPath>
<clipPath id="clip1_0_4517">
<rect width="153" height="48" fill="white" transform="translate(1027 76)"/>
</clipPath>
</defs>
</svg>
